<svg xmlns="http://www.w3.org/2000/svg" xmlns:xlink="http://www.w3.org/1999/xlink" width="720" height="837" viewBox="0 0 720 837"><defs><style>.a,.g{fill:#fff;}.a{stroke:#707070;}.b{fill:none;}.c{clip-path:url(#a);}.d{fill:#4f47bd;}.e{fill:#60dfcf;}.f{fill:#121b45;}.h{clip-path:url(#b);}</style><clipPath id="a"><path class="a" d="M0,0H720V837H0Z" transform="translate(720)"/></clipPath><clipPath id="b"><rect class="b" width="332.022" height="510.826" transform="translate(240 164.327)"/></clipPath></defs><g class="c" transform="translate(-720)"><g transform="translate(-240 -82.576)"><path class="d" d="M1295.27,301.33v62.147l-98.057-53.143,98.057-56.613Z"/><path class="d" d="M1487.635,326.456V252.415l-64.122,37.021v74.041Z"/><path class="d" d="M1487.635,178.373V104.332l-128.244,74.042v74.041Z"/><path class="e" d="M1423.513,363.477v74.041l64.122,37.021V400.5Z"/><path class="f" d="M1487.635,252.415v74.042l64.334,36.83-.213-73.85Z"/><path class="f" d="M1487.635,104.332v74.042l128.456,73.851-.213-73.85Z"/><path class="g" d="M1551.757,363.477l-64.122-37.021-64.122,37.021,64.122,37.021Z"/><path class="g" d="M1423.513,289.436l-64.122-37.021,128.243-74.041,128.244,74.041-64.122,37.021-64.122-37.021Z"/><path class="g" d="M1359.392,178.374l-64.122-37.021L1487.635,30.291,1680,141.353l-64.122,37.021-128.243-74.042Z"/><path class="f" d="M1423.513,437.518,1359.392,400.5V252.415l64.122,37.021Z"/><path class="e" d="M1359.392,400.5l-64.122-37.021V141.353l64.122,37.021Z"/><path class="d" d="M1744.122,541.552,1551.757,437.518V363.477L1487.635,400.5v74.04h0L1680,578.573Z"/><path class="d" d="M1680,141.353l-64.122,37.021V400.5L1680,435.175Z"/><path class="e" d="M1808.243,504.531,1615.878,400.5V252.415l-64.122,37.021V437.518h0l192.365,104.034Z"/></g><rect class="b" width="519" height="400.295" transform="translate(921 95.702)"/><g transform="translate(-240 -82.576)"><g class="h"><path class="e" d="M432.365,435.307v62.206l86.158-50.554L432.365,387.7Z"/><path class="d" d="M304.122,571.555V497.514L240,534.534v74.041Z"/><path class="d" d="M240,460.493V386.451l-64.122,37.021v74.041Z"/><path class="d" d="M240,312.41V238.369L111.756,312.41v74.041Z"/><path class="e" d="M175.878,497.514v74.041L240,608.576V534.534Z"/><path class="f" d="M240,386.451v74.042l64.334,36.83-.213-73.85Z"/><path class="f" d="M240,238.369V312.41l128.456,73.851-.213-73.85Z"/><path class="g" d="M304.122,497.514,240,460.493l-64.122,37.021L240,534.534Z"/><path class="e" d="M368.244,534.534l-64.122,37.021V423.472l64.122-37.021Z"/><path class="d" d="M432.365,497.513l-64.122,37.021V312.41l64.122-37.021Z"/><path class="g" d="M175.878,423.472l-64.122-37.021L240,312.41l128.244,74.041-64.122,37.021L240,386.451Z"/><path class="g" d="M111.757,312.41,47.635,275.39,240,164.327,432.365,275.389,368.243,312.41,240,238.369Z"/><path class="f" d="M175.878,571.555l-64.122-37.021V386.452l64.122,37.021Z"/><path class="e" d="M111.757,534.534,47.635,497.514V275.389l64.122,37.021Z"/></g></g></g></svg>