<svg xmlns="http://www.w3.org/2000/svg" width="40" height="40" viewBox="0 0 40 40">  <g id="_btc_" data-name="${btc}" transform="translate(0 -0.224)">    <circle id="Ellipse_3075" data-name="Ellipse 3075" cx="20" cy="20" r="20" transform="translate(0 0.224)" fill="#f7931a"/>    <path id="Path_31553" data-name="Path 31553" d="M229.479,236.389h0l-2.151-.544.876-3.581c-.619-.156-1.181-.3-1.715-.452l-.883,3.6-2.15-.544.885-3.644-.247-.065-.3-.08h-.012l-.177-.047c-.261-.07-.531-.14-.8-.208l-2.8-.707,1.068-2.5.064.017c1.175.316,1.463.383,1.5.383h0a.74.74,0,0,0,.239.039.787.787,0,0,0,.747-.558l1.408-5.737.228.058a1.671,1.671,0,0,0-.219-.073l1-4.1a1.164,1.164,0,0,0-1-1.272c0-.027-1.025-.271-1.564-.4l.574-2.338,2.967.754v.011c.361.095.722.182,1.093.269l.281.066.883-3.592,2.15.544-.865,3.522.156.035.057.013c.5.117,1.013.237,1.512.365l.858-3.5,2.153.544-.882,3.594c3.28,1.15,4.651,2.749,4.314,5.033a3.467,3.467,0,0,1-2.745,3.21,4.254,4.254,0,0,1,2.062,2.02,5.036,5.036,0,0,1-4.864,6.555,15.033,15.033,0,0,1-2.812-.313l-.892,3.626Zm-1.107-12.021-1.183,4.813c.117.029.253.066.422.111a14.65,14.65,0,0,0,3.555.616c1.495,0,2.385-.54,2.646-1.606a1.988,1.988,0,0,0-.21-1.559c-.835-1.376-3.352-1.948-4.7-2.255-.2-.048-.386-.089-.531-.125Zm1.611-6.573-1.071,4.368c.1.025.22.058.353.094a11.44,11.44,0,0,0,2.866.5c1.313,0,2.1-.505,2.347-1.5a1.88,1.88,0,0,0-.192-1.477c-.717-1.176-2.764-1.634-3.863-1.881-.172-.043-.323-.077-.441-.107Z" transform="translate(-209.782 -203.591)" fill="#fff"/>  </g></svg>