<svg xmlns="http://www.w3.org/2000/svg" xmlns:xlink="http://www.w3.org/1999/xlink" width="100" height="100" viewBox="0 0 100 100"><defs><style>.a{fill:none;}.b{fill:#fff;}.c{clip-path:url(#a);}.d{fill:#60dfcf;}.e{fill:#002c77;}.f{fill:#5048bf;}</style><clipPath id="a"><rect class="a" width="94" height="94" transform="translate(0 0)"/></clipPath></defs><g transform="translate(-208 -2156)"><rect class="b" width="100" height="100" rx="8" transform="translate(208 2156)"/><g transform="translate(211 2159.002)"><g class="c" transform="translate(0 0)"><g transform="translate(24.027 16.417)"><rect class="d" width="9.117" height="32.592" transform="translate(0 47.907) rotate(-90)"/><rect class="e" width="9.117" height="32.592" transform="translate(0 59.655) rotate(-90)"/><g transform="translate(0)"><ellipse class="f" cx="11.384" cy="11.384" rx="11.384" ry="11.384" transform="translate(6.695 6.696)"/><path class="f" d="M2554.284,453.026a18.079,18.079,0,1,0,18.079,18.08A18.078,18.078,0,0,0,2554.284,453.026Zm0,32.364a14.284,14.284,0,1,1,14.284-14.284A14.3,14.3,0,0,1,2554.284,485.39Z" transform="translate(-2536.207 -453.026)"/></g><path class="d" d="M2571.4,487.975v12.611h11.64V487.975h4.626l-10.447-13.928-10.445,13.928Z" transform="translate(-2535.701 -452.679)"/></g></g></g></g></svg>