<svg xmlns="http://www.w3.org/2000/svg" xmlns:xlink="http://www.w3.org/1999/xlink" width="100" height="100" viewBox="0 0 100 100"><defs><style>.a{fill:none;}.b{fill:#fff;}.c{clip-path:url(#a);}.d{fill:#002c77;}.e{fill:#5048bf;opacity:0.99;}.f{fill:#60dfcf;}</style><clipPath id="a"><rect class="a" width="94" height="94"/></clipPath></defs><g transform="translate(-448 -2156)"><rect class="b" width="100" height="100" rx="8" transform="translate(448 2156)"/><g transform="translate(451 2159.002)"><g class="c" transform="translate(0 0)"><g transform="translate(22.827 18.683)"><path class="d" d="M2,0H9.14a0,0,0,0,1,0,0V32.673a0,0,0,0,1,0,0H2a2,2,0,0,1-2-2V2A2,2,0,0,1,2,0Z" transform="translate(15.208 55.733) rotate(-90)"/><rect class="e" width="16.768" height="39.556" rx="7.068" transform="translate(0 16.768) rotate(-90)"/><path class="b" d="M0,0H16.8a0,0,0,0,1,0,0V25.767A6.906,6.906,0,0,1,9.89,32.673H6.906A6.906,6.906,0,0,1,0,25.767V0A0,0,0,0,1,0,0Z" transform="translate(28.175 36.33) rotate(180)"/><path class="f" d="M2941.483,483.547V470.516a4.57,4.57,0,0,0-4.57-4.571h0a4.569,4.569,0,0,0-4.569,4.571v30.632h32.672V489.37a3.046,3.046,0,0,0-2.641-3.019Z" transform="translate(-2917.135 -457.561)"/></g></g></g></g></svg>