<svg xmlns="http://www.w3.org/2000/svg" xmlns:xlink="http://www.w3.org/1999/xlink" width="100" height="100" viewBox="0 0 100 100"><defs><style>.a{fill:#fff;}.b{clip-path:url(#a);}.c{fill:#002c77;}.d{fill:#60dfcf;}.e{fill:#5048bf;}.f{fill:#022c77;}</style><clipPath id="a"><rect class="a" width="94" height="94" transform="translate(0 0)"/></clipPath></defs><g transform="translate(-1168 -2156)"><rect class="a" width="100" height="100" rx="8" transform="translate(1168 2156)"/><g class="b" transform="translate(1171 2159.002)"><g transform="translate(23.154 18.235)"><path class="c" d="M2557.369,412.117h-5.959a1.681,1.681,0,0,0-1.68,1.68v4.048a1.68,1.68,0,0,0,1.68,1.68h6.7v-7.407Z" transform="translate(-2510.37 -375.319)"/><g transform="translate(0 24.293)"><path class="d" d="M2561.854,412.429h4.455v-6.646h-39.1a8.606,8.606,0,0,1-6.4-2.853v28.283a2.925,2.925,0,0,0,2.925,2.925h39.646a2.925,2.925,0,0,0,2.924-2.925v-5.366h-4.455a4.69,4.69,0,0,1-4.685-4.685v-4.048A4.69,4.69,0,0,1,2561.854,412.429Z" transform="translate(-2520.814 -402.93)"/></g><rect class="e" width="36.889" height="4.155" transform="translate(6.66 20.138)"/><path class="d" d="M2524.433,398.808H2562.5V395.3h-35.61a5.177,5.177,0,0,0-2.458,9.741Z" transform="translate(-2520.495 -381.393)"/><rect class="a" width="13.764" height="14.003" transform="translate(15.88 13.143)"/><path class="f" d="M2534.984,396.745v12.631h9.747V396.745h3.874l-8.747-11.662-8.745,11.662Z" transform="translate(-2517.095 -385.082)"/></g></g></g></svg>