<svg width="39" height="35" viewBox="0 0 39 35" fill="none" xmlns="http://www.w3.org/2000/svg">
<path d="M23.2769 6.58406C24.3272 7.23493 25.2911 8.01577 26.1459 8.90806H28.9289C27.8572 7.43764 26.5321 6.16984 25.0159 5.16406C24.4758 5.68396 23.8942 6.15887 23.2769 6.58406Z" fill="#102D6F"/>
<path d="M15.4949 32.0169V31.9709C13.6931 31.8836 11.9235 31.4607 10.2769 30.7239H10.2329L10.1889 30.6799C6.87056 29.1459 4.29275 26.3629 3.01689 22.9369C2.57251 21.703 2.29472 20.4153 2.19089 19.1079C1.51682 18.7781 0.900256 18.3418 0.364891 17.8159C0.238376 17.7121 0.121867 17.5966 0.0168914 17.4709C-0.0806156 19.5807 0.244764 21.6887 0.973891 23.6709C2.40373 27.5845 5.32703 30.7714 9.10289 32.5329L9.23289 32.5769C11.9985 33.8694 15.0795 34.3324 18.1029 33.9099C17.1889 33.4972 16.3627 32.913 15.6689 32.1889L15.4949 32.0169Z" fill="#102D6F"/>
<path d="M29.321 21.9471L30.147 25.6911C30.2647 25.4847 30.3651 25.269 30.447 25.0461L30.491 24.9171C31.3229 23.1431 31.825 21.2327 31.973 19.2791C31.2485 19.498 30.5069 19.6562 29.756 19.7521C29.674 20.4948 29.5285 21.2292 29.321 21.9471Z" fill="#102D6F"/>
<mask id="mask0_102_62" style="mask-type:luminance" maskUnits="userSpaceOnUse" x="0" y="0" width="39" height="33">
<path d="M0.0908203 0H38.5808V32.77H0.0908203V0Z" fill="white"/>
</mask>
<g mask="url(#mask0_102_62)">
<path d="M22.0389 32.771C21.7118 32.7709 21.3851 32.7491 21.0609 32.706C20.4105 32.6265 19.7782 32.4375 19.1909 32.147C18.4367 31.8108 17.7569 31.3282 17.1909 30.727C16.7679 30.2973 16.4158 29.8032 16.1479 29.263C15.4341 29.2716 14.7211 29.214 14.0179 29.091C13.0875 28.9104 12.1814 28.6218 11.3179 28.231C9.17187 27.2416 7.393 25.5999 6.23489 23.54C5.27985 21.7705 4.80088 19.7833 4.84489 17.773C4.45919 17.733 4.07976 17.6463 3.71489 17.515C2.99794 17.2551 2.34521 16.8441 1.80089 16.31C0.972012 15.5264 0.408753 14.5034 0.189894 13.384C-0.0342118 12.2619 0.118714 11.0972 0.624894 10.071L0.841894 9.683L1.27689 8.866L2.14589 9.254L14.6699 15.019C15.8997 15.553 17.0189 16.312 17.9699 17.257C18.8011 18.1144 19.3737 19.1889 19.6219 20.357L20.9219 26.339C21.4857 26.478 22.0272 26.6951 22.5309 26.984C23.0568 27.2764 23.5189 27.6712 23.8899 28.145L22.3679 29.306C22.1678 29.0266 21.8982 28.8043 21.5859 28.661C21.0699 28.3836 20.5112 28.1943 19.9329 28.101L19.3239 27.972L19.1939 27.372L17.9769 21.736C17.7095 21.8688 17.4335 21.9837 17.1509 22.08C16.8138 22.1672 16.4671 22.2112 16.1189 22.211C15.5927 22.2136 15.0713 22.1116 14.5849 21.911L14.3679 21.824C13.899 21.6118 13.4768 21.3085 13.1259 20.9319C12.7751 20.5553 12.5024 20.1128 12.3239 19.63C12.1443 19.168 12.0595 18.6745 12.0747 18.1791C12.0898 17.6836 12.2045 17.1962 12.4119 16.746L12.4549 16.618C12.5093 16.4832 12.5805 16.3559 12.6669 16.239L12.6729 16.231L2.18989 11.4C2.00872 11.941 1.9783 12.5211 2.10189 13.078C2.23805 13.8172 2.60328 14.4949 3.14589 15.015C3.49595 15.3517 3.9097 15.6152 4.36289 15.79C4.57432 15.8675 4.79264 15.9248 5.01489 15.961H5.05789C5.07989 15.833 5.13389 15.639 5.18689 15.451C5.23989 15.263 5.29689 15.059 5.31889 14.928L6.36189 15.402L7.01389 15.702L6.92689 16.002C6.65839 17.0408 6.58482 18.1204 6.70989 19.186C6.85233 20.4052 7.22097 21.587 7.79689 22.671C8.74849 24.3927 10.2258 25.7648 12.0129 26.587C12.718 26.9141 13.4636 27.1458 14.2299 27.276C14.8054 27.3712 15.3876 27.4197 15.9709 27.421C16.1609 27.421 16.3499 27.415 16.5339 27.405L17.2339 27.362L17.4949 28.009C17.7035 28.56 18.0298 29.0589 18.4509 29.471C18.8541 29.9128 19.3439 30.2668 19.8899 30.511C20.311 30.7243 20.7688 30.856 21.2389 30.899C21.6292 30.9347 22.0211 30.9491 22.4129 30.942L26.5429 28.101L24.9779 20.829L24.9339 20.657C25.1329 19.9126 25.2337 19.1455 25.2339 18.375C25.2577 16.6078 24.7645 14.8721 23.8151 13.3814C22.8657 11.8906 21.5014 10.7098 19.8899 9.984C19.6439 9.862 19.4329 9.778 19.2289 9.696L19.1899 9.683C18.9517 9.58584 18.704 9.51378 18.4509 9.468C18.2096 9.39067 17.9625 9.33315 17.7119 9.296H17.6249C17.0454 10.2768 16.1806 11.0575 15.1459 11.534C14.441 11.8563 13.675 12.0231 12.8999 12.023C12.5449 12.0229 12.1906 11.9894 11.8419 11.923C10.8856 11.6802 9.95393 11.3491 9.05889 10.934C8.22929 10.6008 7.42999 10.1966 6.66989 9.726C5.68847 8.97865 4.99707 7.91364 4.71389 6.713C4.43755 5.51631 4.55939 4.26213 5.06089 3.141C5.48807 2.26291 6.13158 1.50791 6.93089 0.947C7.74308 0.39267 8.68877 0.065701 9.66989 0L9.75789 0L24.5819 0.043H26.2339L25.3659 1.463C24.3818 3.14662 22.9724 4.54193 21.2789 5.509C19.5998 6.47595 17.6945 6.98075 15.7569 6.972H9.88989L9.93389 5.035H15.7999C17.3999 5.04024 18.9734 4.62653 20.3639 3.835C21.2546 3.31444 22.0611 2.66167 22.7559 1.899H9.80089C9.19005 1.9399 8.60209 2.14742 8.10089 2.499C7.5788 2.85569 7.16087 3.34471 6.88989 3.916C6.54978 4.64086 6.45704 5.45732 6.62589 6.24C6.82331 7.01849 7.2666 7.71252 7.88989 8.219C8.52573 8.56768 9.17891 8.88375 9.84689 9.166C10.6161 9.52478 11.4164 9.81264 12.2379 10.026C12.4605 10.0647 12.686 10.0841 12.9119 10.084C13.4288 10.0879 13.9405 9.9801 14.4119 9.768C15.0748 9.47761 15.6247 8.97864 15.9779 8.347L16.2389 7.83L16.5389 7.23L17.2389 7.316L17.6539 7.377C17.7999 7.399 17.9539 7.422 18.1079 7.444C18.4039 7.49063 18.6954 7.56291 18.9789 7.66C19.1359 7.704 19.2789 7.749 19.4259 7.793C19.5729 7.837 19.7009 7.877 19.8479 7.919C19.9639 7.968 20.0739 8.011 20.1799 8.053C20.3509 8.12 20.5129 8.183 20.6739 8.263C22.0578 8.89884 23.2998 9.8065 24.3259 10.932H38.5859L37.7169 12.352C36.8299 13.8439 35.6098 15.1102 34.1519 16.052C32.7099 17.0151 31.0519 17.6063 29.3259 17.773H29.2399L29.1529 15.923H29.2399C30.6496 15.7638 32.0025 15.2764 33.1899 14.5C33.8956 14.0238 34.5381 13.4599 35.1019 12.822H25.7549C25.7759 12.863 25.8079 12.915 25.8389 12.966C25.8699 13.017 25.9069 13.078 25.9299 13.123C27.0588 15.2627 27.4557 17.7133 27.0599 20.1L26.9729 20.617L28.6249 28.234L28.7549 28.834L28.2329 29.178L23.4079 32.535L23.2339 32.663L23.0159 32.706C22.692 32.7491 22.3656 32.7708 22.0389 32.771ZM14.3659 17.042C14.3409 17.079 14.3149 17.113 14.2909 17.142C14.2303 17.2139 14.182 17.2953 14.1479 17.383C14.0274 17.6213 13.9575 17.8819 13.9427 18.1485C13.9279 18.4151 13.9685 18.6819 14.0619 18.932C14.2448 19.4416 14.6184 19.8603 15.1039 20.1C15.3817 20.2287 15.6837 20.2969 15.9899 20.3C16.1612 20.3002 16.3316 20.2756 16.4959 20.227C16.7795 20.1508 17.0453 20.0193 17.2779 19.84C17.1199 19.3679 16.8518 18.9401 16.4959 18.592C15.8802 17.9568 15.1597 17.4325 14.3659 17.042Z" fill="#102D6F"/>
</g>
</svg>
