<svg xmlns="http://www.w3.org/2000/svg" xmlns:xlink="http://www.w3.org/1999/xlink" width="40" height="40" viewBox="0 0 40 40">  <defs>    <clipPath id="clip-path">      <rect id="Rectangle_6712" data-name="Rectangle 6712" width="40" height="40" transform="translate(0 0.139)" fill="#fff" stroke="#707070" stroke-width="1"/>    </clipPath>  </defs>  <g id="_eur_" data-name="${eur}" transform="translate(19747 -14910)">    <g id="eur" transform="translate(-19747 14909.861)" clip-path="url(#clip-path)">      <g id="Group_19155" data-name="Group 19155" transform="translate(0 0.139)">        <circle id="Ellipse_2992" data-name="Ellipse 2992" cx="20" cy="20" r="20" fill="#3961fb"/>        <path id="Path_29821" data-name="Path 29821" d="M-4062.658-1360.62a7.8,7.8,0,0,1-6.94-4.26h6.94v-2.435h-7.733a8.126,8.126,0,0,1-.1-1.217,8,8,0,0,1,.1-1.217h7.733v-2.435h-6.94a7.812,7.812,0,0,1,6.94-4.26,7.754,7.754,0,0,1,5.1,1.911l2.132-2.154a10.725,10.725,0,0,0-7.228-2.8,10.857,10.857,0,0,0-10.216,7.3h-4.24v2.435h3.687a10.042,10.042,0,0,0-.072,1.217,10.137,10.137,0,0,0,.072,1.217h-3.687v2.435h4.24a10.859,10.859,0,0,0,10.216,7.3,10.7,10.7,0,0,0,7.228-2.8l-2.145-2.154A7.67,7.67,0,0,1-4062.658-1360.62Z" transform="translate(4083.946 1388.587)" fill="#fff"/>      </g>    </g>  </g></svg>