<svg id="Icons_Cryptocurrency_Dash_DASH_" data-name="Icons / Cryptocurrency / Dash (DASH)" xmlns="http://www.w3.org/2000/svg" width="40" height="40" viewBox="0 0 120 120">  <circle id="Ellipse_2906" data-name="Ellipse 2906" cx="60" cy="60" r="60" fill="#008ce7"/>  <g id="Group_14023" data-name="Group 14023" transform="translate(22.515 30.015)">    <path id="Path_24230" data-name="Path 24230" d="M46.941,8H19.656L17.4,20.63l24.607.037c12.116,0,15.712,4.4,15.6,11.7-.052,3.742-1.684,10.072-2.374,12.112-1.864,5.475-5.7,11.707-20.1,11.689l-23.917-.015L8.957,68.8H36.171c9.6,0,13.684-1.121,18-3.112C63.748,61.265,69.452,51.8,71.743,39.455,75.141,21.08,70.9,8,46.937,8Z" transform="translate(2.117 -8.004)" fill="#fff"/>    <path id="Path_24231" data-name="Path 24231" d="M42.765,19.593c.889-3.694,1.17-5.175,1.17-5.175H16.013c-7.14,0-8.16,4.65-8.839,7.462C6.285,25.559,6,27.059,6,27.059H33.93c7.136,0,8.156-4.65,8.835-7.466Z" transform="translate(-6.004 9.634)" fill="#fff"/>  </g></svg>