<svg xmlns="http://www.w3.org/2000/svg" width="40" height="40" viewBox="0 0 40 40">  <g id="_xem_" data-name="${xem}" transform="translate(0 0.285)">    <circle id="Ellipse_3108" data-name="Ellipse 3108" cx="20" cy="20" r="20" transform="translate(0 -0.285)" fill="#00c4b4"/>    <path id="Path_31603" data-name="Path 31603" d="M659.6,229.674a23.956,23.956,0,0,1-.181-2.841,25.409,25.409,0,0,1,12.965-3.236c.707.014,1.73.091,2.507.173a7.376,7.376,0,0,0-3.816,5.142,7.616,7.616,0,0,0-.129,1.211,6.679,6.679,0,0,1-.219,1.66,5.667,5.667,0,0,1-10.544.824,1.785,1.785,0,0,1-.126-.369A24.389,24.389,0,0,1,659.6,229.674Z" transform="translate(-651.898 -214.964)" fill="#fff"/>    <path id="Path_31604" data-name="Path 31604" d="M801.359,250.545q-.445.68-.936,1.331a7.363,7.363,0,0,0-3.581-6.322l-.109-.068c-.1-.056-.135-.081-.184-.107a5.436,5.436,0,0,1-2.581-3.73,5.544,5.544,0,0,1,4.209-6.406,5.642,5.642,0,0,1,3.035.1,20.134,20.134,0,0,1,2.5.99c.548.253,1.1.54,1.689.863,0,.663-.035,1.341-.1,2.041a24.517,24.517,0,0,1-3.944,11.3Z" transform="translate(-772.907 -225.313)" fill="#fff"/>    <path id="Path_31605" data-name="Path 31605" d="M695.654,358.125a25.516,25.516,0,0,1-4.631,3.449c-.261-.14-.759-.446-1.268-.788a25.216,25.216,0,0,1-7.26-7.347,24.625,24.625,0,0,1-1.81-3.351,7.6,7.6,0,0,0,7.512.015,5.809,5.809,0,0,1,2.124-.7,5.628,5.628,0,0,1,6.1,3.933,5.392,5.392,0,0,1-.352,4.056c-.055.107-.1.205-.219.421l-.056.107a.711.711,0,0,1-.14.2Z" transform="translate(-671.036 -328.334)" fill="#fff"/>  </g></svg>