<svg xmlns="http://www.w3.org/2000/svg" xmlns:xlink="http://www.w3.org/1999/xlink" width="360" height="200" viewBox="0 0 360 200"><defs><style>.a,.f{fill:#fff;}.a{stroke:#707070;}.b{clip-path:url(#a);}.c{fill:#4f47bd;}.d{fill:#60dfcf;}.e{fill:#121b45;}</style><clipPath id="a"><rect class="a" width="360" height="200" transform="translate(0 0)"/></clipPath></defs><g class="b"><g transform="translate(-1070 -172.957)"><path class="c" d="M1244.547,276.7v30l-47.333-25.653,47.333-27.328Z" transform="translate(0 -115.578)"/><g transform="translate(1244.546 30.291)"><path class="c" d="M1454.466,288.155V252.415l-30.953,17.87v35.741Z" transform="translate(-1361.609 -145.193)"/><path class="c" d="M1421.3,140.073V104.332l-61.9,35.741v35.741Z" transform="translate(-1328.439 -68.591)"/><path class="d" d="M1423.513,363.477v35.741l30.952,17.87V381.347Z" transform="translate(-1361.609 -202.644)"/><path class="e" d="M1487.635,252.415v35.741l31.055,17.778-.1-35.648Z" transform="translate(-1394.778 -145.193)"/><path class="e" d="M1487.635,104.332v35.741l62.007,35.649-.1-35.648Z" transform="translate(-1394.778 -68.591)"/><path class="f" d="M1485.418,344.327l-30.952-17.87-30.952,17.87,30.952,17.87Z" transform="translate(-1361.609 -183.493)"/><path class="f" d="M1390.344,231.985l-30.952-17.87,61.9-35.741,61.9,35.741-30.952,17.87-30.952-17.87Z" transform="translate(-1328.439 -106.892)"/><path class="f" d="M1326.222,101.772,1295.27,83.9l92.857-53.611L1480.984,83.9l-30.952,17.87-61.9-35.741Z" transform="translate(-1295.27 -30.291)"/><path class="e" d="M1390.344,341.767l-30.952-17.87V252.415l30.952,17.87Z" transform="translate(-1328.439 -145.193)"/><path class="d" d="M1326.222,266.445l-30.952-17.87V141.353l30.952,17.87Z" transform="translate(-1295.27 -87.742)"/></g><path class="c" d="M1611.444,449.436l-92.857-50.218V363.477l-30.952,17.87v35.74h0l92.857,50.218Z" transform="translate(-150.232 -172.353)"/><g transform="translate(1399.308 83.902)"><path class="c" d="M1646.831,141.353l-30.952,17.87V266.445l30.952,16.739Z" transform="translate(-1615.878 -141.353)"/></g><path class="d" d="M1675.566,374.115,1582.709,323.9V252.415l-30.952,17.87v71.481h0l92.857,50.218Z" transform="translate(-183.401 -114.902)"/></g></g></svg>