<svg id="_usdt_" data-name="${usdt}" xmlns="http://www.w3.org/2000/svg" width="40" height="40" viewBox="0 0 40 40">  <path id="Path_31594" data-name="Path 31594" d="M20,0A20,20,0,1,1,0,20,20,20,0,0,1,20,0" fill="#53ae94"/>  <path id="Path_31595" data-name="Path 31595" d="M407.7,498.849v-2.976h6.8V491.34H395.986v4.533h6.8v2.973c-5.531.253-9.689,1.349-9.689,2.667s4.16,2.407,9.689,2.667V513.7h4.92v-9.531c5.52-.255,9.669-1.349,9.669-2.667s-4.149-2.4-9.669-2.667m0,4.513h0c-.138,0-.851.051-2.444.051-1.269,0-2.162-.036-2.478-.051h0c-4.889-.222-8.533-1.067-8.533-2.084s3.647-1.867,8.533-2.085V502.5c.32.022,1.236.075,2.5.075,1.518,0,2.28-.062,2.42-.075v-3.322c4.875.222,8.513,1.069,8.513,2.085s-3.64,1.867-8.513,2.084" transform="translate(-385.236 -481.513)" fill="#fff"/></svg>