<?xml version="1.0" encoding="UTF-8" ?><svg id="uuid-f456d6de-d9a8-463b-b8a2-4819d36314b6" xmlns="http://www.w3.org/2000/svg" viewBox="0 0 40 40"><defs><style  >.uuid-ea20e949-7618-49bc-891a-60b5507517f3{fill:#fff;}.uuid-a203f60f-062f-4817-88d3-bb6badcfde37{fill:#49c5b6;}</style></defs><g  id="uuid-37cb34e4-aed3-4916-bfcf-87b16f67c4b2" ><path   id="uuid-568a704f-0c7e-4dad-9f1a-3dcb5abb5097"   class="uuid-a203f60f-062f-4817-88d3-bb6badcfde37"   d="M20,0c11.05,0,20,8.95,20,20s-8.95,20-20,20S0,31.05,0,20,8.95,0,20,0Z"  /><g><path    class="uuid-ea20e949-7618-49bc-891a-60b5507517f3"    d="M15.17,16.95l-.78-1.27c0,.08-1.19,2.36-1.14,2.45,0-.02,1.95-1.14,1.92-1.18Z"   /><path    class="uuid-ea20e949-7618-49bc-891a-60b5507517f3"    d="M17.63,26.72c.05,.28,0-2.3,.02-2.25-.03,0-.73-.11-.76-.11,.01,.03,.77,2.47,.74,2.36Z"   /><path    class="uuid-ea20e949-7618-49bc-891a-60b5507517f3"    d="M17.65,22.3s-.78,1.65-.76,1.73c.02,0,.71,.11,.73,.11,.08-.05,0-1.77,.03-1.84Z"   /><path    class="uuid-ea20e949-7618-49bc-891a-60b5507517f3"    d="M15.43,30.43c-.1,.01-2.15,1.11-2.19,1.15,.01-.04,4.2,.32,4.1,.18,.03,0-1.92-1.33-1.91-1.33Z"   /><path    class="uuid-ea20e949-7618-49bc-891a-60b5507517f3"    d="M15.17,28.64c.07-.12-1.95-.54-1.98-.59-.05,3.74-.18,2.99,1.98,.59Z"   /><path    class="uuid-ea20e949-7618-49bc-891a-60b5507517f3"    d="M14.16,25.52c-.97,2.49-1.85,2.08,1.07,2.81-.04,0-1.01-2.96-1.07-2.81Z"   /><path    class="uuid-ea20e949-7618-49bc-891a-60b5507517f3"    d="M13.22,26.83l.68-1.54-.65-.45c-.12-.1-.08,2.05-.03,2Z"   /><path    class="uuid-ea20e949-7618-49bc-891a-60b5507517f3"    d="M15.04,22.72l-1.85,1.44c-.18,.32,.61,.76,.77,.93,.11,.03,1.03-2.33,1.09-2.37Z"   /><path    class="uuid-ea20e949-7618-49bc-891a-60b5507517f3"    d="M13.19,23.68c.08,.07,2.03-1.58,2.09-1.58,.08-.09-.99-.92-1-.98-.1,.05-1.13,2.41-1.09,2.57Z"   /><path    class="uuid-ea20e949-7618-49bc-891a-60b5507517f3"    d="M13.21,22.77c.02-.06,.83-1.81,.81-1.88,0-.01-.81-1.48-.8-1.49-.06,.07-.03,3.26-.01,3.37Z"   /><path    class="uuid-ea20e949-7618-49bc-891a-60b5507517f3"    d="M15.71,19.48s-2.43-.71-2.47-.72c1.06,1.89,.53,2.54,2.47,.72Z"   /><path    class="uuid-ea20e949-7618-49bc-891a-60b5507517f3"    d="M13.21,17.43c-.02-.09,.98-1.94,.89-2.03,0,0-.92-.06-.92-.06,.02,.05-.05,2.07,.02,2.09Z"   /><path    class="uuid-ea20e949-7618-49bc-891a-60b5507517f3"    d="M13.19,14.77c-.14,.49,.63,.27,1.06,.35,.14-2.25,.11-1.65-1.06-.35Z"   /><path    class="uuid-ea20e949-7618-49bc-891a-60b5507517f3"    d="M14.19,13.14c.08-.11-.98-.2-1-.23-.05,2.05-.02,1.36,1,.23Z"   /><path    class="uuid-ea20e949-7618-49bc-891a-60b5507517f3"    d="M13.19,12.53l1.06,.23s-.38-1.37-.46-1.39c-.3,.3-.71,.66-.6,1.16Z"   /><path    class="uuid-ea20e949-7618-49bc-891a-60b5507517f3"    d="M13.21,10.1c-.02-.06-.08,1.63,.03,1.54,0,0,.52-.56,.52-.56,.03-.04-.57-.97-.55-.99Z"   /><path    class="uuid-ea20e949-7618-49bc-891a-60b5507517f3"    d="M13.91,10.81c.07,.1,2.53-1.92,2.59-1.91,.08-.13-3.3-.07-3.31-.11-.19,.51,.52,1.6,.72,2.02Z"   /><path    class="uuid-ea20e949-7618-49bc-891a-60b5507517f3"    d="M14.41,10.9c0,.1,2.86,0,2.89,.03,0,0-.42-1.92-.42-1.93-.07-.13-2.51,1.82-2.47,1.9Z"   /><path    class="uuid-ea20e949-7618-49bc-891a-60b5507517f3"    d="M17.17,8.85s.34,1.92,.45,1.85c0,0,1.68-1.86,1.68-1.86,.1-.14-2.13,.04-2.13,0Z"   /><path    class="uuid-ea20e949-7618-49bc-891a-60b5507517f3"    d="M16.98,11.23s-2.88,0-2.89,0c.04,.04,.38,1.53,.46,1.55,.03,0,2.46-1.48,2.43-1.54Z"   /><path    class="uuid-ea20e949-7618-49bc-891a-60b5507517f3"    d="M22.56,9.08l-2.73-.3s.42,1.57,.42,1.58c0,.14,2.46-1.25,2.31-1.28Z"   /><path    class="uuid-ea20e949-7618-49bc-891a-60b5507517f3"    d="M22.41,10.89s2.78-.45,2.76-.59c-2.01-.89-1.69-1.81-2.76,.59Z"   /><path    class="uuid-ea20e949-7618-49bc-891a-60b5507517f3"    d="M25.65,10.74s-.75,3.36-.65,3.39c1.81-1.85,2.14-1.02,.65-3.39Z"   /><path    class="uuid-ea20e949-7618-49bc-891a-60b5507517f3"    d="M26.69,12.93c-2.37,2.29-2,1.26-.33,3.94,.02,.12,.64-1.86,.63-1.77-.04-.16-.22-2.37-.3-2.17Z"   /><path    class="uuid-ea20e949-7618-49bc-891a-60b5507517f3"    d="M26.07,17.35c-1.96-.08-2.14-.84-1.32,1.38,.04,.05,1.34-1.34,1.32-1.38Z"   /><path    class="uuid-ea20e949-7618-49bc-891a-60b5507517f3"    d="M24,17.11s-2-.39-1.91-.25c.08,0,2.3,1.88,2.4,1.79-.01,0-.47-1.55-.5-1.54Z"   /><path    class="uuid-ea20e949-7618-49bc-891a-60b5507517f3"    d="M24.29,16.83c-.05,.15,1.88,.2,1.91,.24,.08-.07-1.34-1.94-1.34-2-.03-.15-.55,1.76-.57,1.76Z"   /><path    class="uuid-ea20e949-7618-49bc-891a-60b5507517f3"    d="M24.08,16.48c.52-1.92,.85-1.52-1.01-2.45,.05,.01,.9,2.52,1.01,2.45Z"   /><path    class="uuid-ea20e949-7618-49bc-891a-60b5507517f3"    d="M23.01,13.64c.08,.04,1.58,.83,1.67,.86,0,0,.67-3.46,.67-3.46-.07-.06-2.34,2.54-2.34,2.59Z"   /><path    class="uuid-ea20e949-7618-49bc-891a-60b5507517f3"    d="M21.93,13.75c-.1,.03,.16,.8,.15,.86,.05,.05,.48-.8,.46-.85,0-.04-.59,0-.6-.01Z"   /><path    class="uuid-ea20e949-7618-49bc-891a-60b5507517f3"    d="M22.21,15.12s-.6,1.3-.54,1.34c0,.04,2.13,.3,2.15,.31,0,0-1.09-2.72-1.11-2.72-.04,0-.48,1.04-.5,1.07Z"   /><path    class="uuid-ea20e949-7618-49bc-891a-60b5507517f3"    d="M25.22,10.62l-2.95,.54,.54,2.09c.08,.14,2.55-2.73,2.41-2.64Z"   /><path    class="uuid-ea20e949-7618-49bc-891a-60b5507517f3"    d="M22.53,13.46s-.41-1.59-.43-1.6c-.03-.02-.25,1.61-.26,1.62,0-.01,.71,.03,.7-.02Z"   /><path    class="uuid-ea20e949-7618-49bc-891a-60b5507517f3"    d="M20.8,12.44c.04,.11,1.12-1.3,.97-1.31-2.05-.62-1.26-.2-.97,1.31Z"   /><path    class="uuid-ea20e949-7618-49bc-891a-60b5507517f3"    d="M21.77,11.6s-.87,1.16-.85,1.19c0,0,.58,.51,.58,.51,.08,.09,.36-1.78,.27-1.7Z"   /><path    class="uuid-ea20e949-7618-49bc-891a-60b5507517f3"    d="M20.64,10.55c-.15,.03,1.35,.31,1.34,.32,0-.06,.72-1.45,.74-1.51l-2.08,1.18Z"   /><path    class="uuid-ea20e949-7618-49bc-891a-60b5507517f3"    d="M19.97,10.51s-.3-1.6-.43-1.53c0,0-1.61,1.79-1.61,1.79-.11,.14,2.06-.27,2.04-.26Z"   /><path    class="uuid-ea20e949-7618-49bc-891a-60b5507517f3"    d="M17.41,11.34c-.05-.07-2.3,1.35-2.28,1.43,0,0,2.51-.41,2.52-.41l-.24-1.02Z"   /><path    class="uuid-ea20e949-7618-49bc-891a-60b5507517f3"    d="M17.94,12.34s1.43,0,1.16,0c-.08-.02-1.26-.94-1.35-.89,0,.01,.18,.88,.19,.89Z"   /><path    class="uuid-ea20e949-7618-49bc-891a-60b5507517f3"    d="M17.66,16.77c-.01-.05,.02-3.49-.01-3.53-1.01,1.89-.9,1.71,.01,3.53Z"   /><path    class="uuid-ea20e949-7618-49bc-891a-60b5507517f3"    d="M19.84,12.4s.67,.21,.62,.19c-.02-.11-.31-1.35-.31-1.31-.07,.08-.29,1.09-.32,1.12Z"   /><path    class="uuid-ea20e949-7618-49bc-891a-60b5507517f3"    d="M19.98,10.85c-2.21,.44-2.75-.13-.48,1.45,.11,.07,.44-1.42,.48-1.45Z"   /><path    class="uuid-ea20e949-7618-49bc-891a-60b5507517f3"    d="M20.5,17.5c-.07,.05,3.39,1.18,3.31,1.05,0,0-2.39-1.79-2.39-1.79-.02,.05-.89,.7-.92,.74Z"   /><path    class="uuid-ea20e949-7618-49bc-891a-60b5507517f3"    d="M18.27,17.71s2.22,1.71,2.31,1.67c-.54-2.06-.32-1.57-2.31-1.67Z"   /><path    class="uuid-ea20e949-7618-49bc-891a-60b5507517f3"    d="M24.05,19.05c-.07,0-3.6-1.33-3.67-1.22-.01,.05,.49,1.71,.49,1.75,0,0,3.23-.54,3.19-.53Z"   /><path    class="uuid-ea20e949-7618-49bc-891a-60b5507517f3"    d="M21.3,19.75c.06,.06,3.57,1.22,3.68,1.21,0,0-.36-1.71-.36-1.71-.14-.12-3.17,.53-3.31,.51Z"   /><path    class="uuid-ea20e949-7618-49bc-891a-60b5507517f3"    d="M25.25,20.89c1.79-1.2,1.31-.86-.3-1.54,0,.03,.32,1.51,.3,1.54Z"   /><path    class="uuid-ea20e949-7618-49bc-891a-60b5507517f3"    d="M26.83,20.15s-1.34,.98-1.23,.99c.08-.03,2.42,.56,2.49,.44-.02-.06-1.18-1.46-1.26-1.43Z"   /><path    class="uuid-ea20e949-7618-49bc-891a-60b5507517f3"    d="M28.92,24.3c.22,0-.57-1.79-.55-1.83-.03,0-.6,2.18-.61,2.2,.01,.02,1.21-.49,1.16-.36Z"   /><path    class="uuid-ea20e949-7618-49bc-891a-60b5507517f3"    d="M27.33,27.13s1.37,.23,1.37,.14c0,0,.3-2.32,.3-2.32-.08-.05-1.67,2.12-1.67,2.18Z"   /><path    class="uuid-ea20e949-7618-49bc-891a-60b5507517f3"    d="M27.15,27.37c.13,2.96,.06,1.92,1.43,.22,.1-.12-1.65-.24-1.43-.22Z"   /><path    class="uuid-ea20e949-7618-49bc-891a-60b5507517f3"    d="M24.53,30.99c2.97-1.57,2.63-.97-.19-2.15,.06,.06,.01,2.17,.19,2.15Z"   /><path    class="uuid-ea20e949-7618-49bc-891a-60b5507517f3"    d="M23.67,31.23h-.02s.02,0,.02,0Z"   /><path    class="uuid-ea20e949-7618-49bc-891a-60b5507517f3"    d="M19.92,30.18s2.13,1.29,2.14,1.31l1.56-.28c.18-.03-3.69-.99-3.7-1.02Z"   /><path    class="uuid-ea20e949-7618-49bc-891a-60b5507517f3"    d="M18.15,31.77c.05,0,3.66-.24,3.46-.24-.1-.01-2.46-1.6-2.59-1.54,.05,.04-1.15,1.83-.87,1.78Z"   /><path    class="uuid-ea20e949-7618-49bc-891a-60b5507517f3"    d="M16.34,19.29s4.04,.34,3.79,.19c-.03,0-2.32-1.76-2.35-1.73,0,.05-1.5,1.48-1.44,1.54Z"   /><path    class="uuid-ea20e949-7618-49bc-891a-60b5507517f3"    d="M16.17,19.08c1.67-1.7,1.84-1.33-.54-1.85,.05,.04,.41,1.87,.54,1.85Z"   /><path    class="uuid-ea20e949-7618-49bc-891a-60b5507517f3"    d="M17.56,21.36c.07-.08-1.4-1.63-1.46-1.6-.27,2.26-1.26,2.51,1.46,1.6Z"   /><path    class="uuid-ea20e949-7618-49bc-891a-60b5507517f3"    d="M20.34,19.82s-3.93-.3-3.87-.19c.03,0,1.42,1.66,1.47,1.63,0-.04,2.45-1.37,2.4-1.43Z"   /><path    class="uuid-ea20e949-7618-49bc-891a-60b5507517f3"    d="M18.43,21.31s2.75,0,2.76,.01c-.03-.03-.45-1.35-.5-1.37-.02,0-2.24,1.36-2.26,1.35Z"   /><path    class="uuid-ea20e949-7618-49bc-891a-60b5507517f3"    d="M21.55,21.32l2.87-.24c0-.06-3.31-1.11-3.34-1.14-.09,.06,.47,1.33,.47,1.38Z"   /><path    class="uuid-ea20e949-7618-49bc-891a-60b5507517f3"    d="M21.86,21.58c1.58,1.27,1.32,.91,2.79-.18,.25-.21-2.75,.24-2.79,.18Z"   /><path    class="uuid-ea20e949-7618-49bc-891a-60b5507517f3"    d="M24.11,24.2s2.49,.36,2.49,.34c-.07-.02-3.03-1.57-3.11-1.54,.01,.02,.61,1.2,.62,1.2Z"   /><path    class="uuid-ea20e949-7618-49bc-891a-60b5507517f3"    d="M24.15,24.66s-.35,1.63-.37,1.67c0,.01,2.63,.59,2.64,.59,.09-.08-2.28-2.21-2.28-2.26Z"   /><path    class="uuid-ea20e949-7618-49bc-891a-60b5507517f3"    d="M22.3,27.52c.05,.09,1.56,.94,1.67,.93-.49-1.43,.03-2.24-1.67-.93Z"   /><path    class="uuid-ea20e949-7618-49bc-891a-60b5507517f3"    d="M23.21,28.42s-1.2-.64-1.21-.67c-.03,0-1.13,.24-1.16,.23-.04,.05,2.37,.41,2.38,.43Z"   /><path    class="uuid-ea20e949-7618-49bc-891a-60b5507517f3"    d="M19.04,29.5c.81-1.72,1.12-1.4-.83-1.54-.16,.06,.87,1.48,.83,1.54Z"   /><path    class="uuid-ea20e949-7618-49bc-891a-60b5507517f3"    d="M23.5,22.66s3.64,1.76,3.67,1.79c0,0-1.99-2.96-1.99-2.96-.07-.14-1.62,1.22-1.68,1.17Z"   /><path    class="uuid-ea20e949-7618-49bc-891a-60b5507517f3"    d="M28.21,21.9c-.09,0-2.69-.61-2.78-.52-.03,.02,2.08,3.09,2.08,3.11,.04,.06,.69-2.52,.7-2.59Z"   /><path    class="uuid-ea20e949-7618-49bc-891a-60b5507517f3"    d="M27.41,24.94l-2.93-.41c-.09,.07,2.41,2.33,2.41,2.38,.08,.08,.54-1.96,.52-1.97Z"   /><path    class="uuid-ea20e949-7618-49bc-891a-60b5507517f3"    d="M27.33,26.53s1.45-1.86,1.47-1.87c-.07-.03-1.06,.33-1.11,.36-.03,.01-.35,1.5-.37,1.52Z"   /><path    class="uuid-ea20e949-7618-49bc-891a-60b5507517f3"    d="M26.62,27.26s-2.74-.65-2.76-.66c0,0,.42,1.74,.42,1.74,.04,.16,2.27-1.12,2.35-1.08Z"   /><path    class="uuid-ea20e949-7618-49bc-891a-60b5507517f3"    d="M24.61,28.6s2.46,.99,2.39,.97c0-.11-.12-2.18-.13-2.08-.1,.05-2.26,1.12-2.26,1.12Z"   /><path    class="uuid-ea20e949-7618-49bc-891a-60b5507517f3"    d="M19.35,29.62s3.98-.94,3.99-.94c.09-.05-3.25-.53-3.23-.55-.07,.03-.72,1.45-.76,1.49Z"   /><path    class="uuid-ea20e949-7618-49bc-891a-60b5507517f3"    d="M15.29,17.29c-3.17,1.69-1.73,1.14,.55,1.96-.03-.05-.45-2.06-.55-1.96Z"   /><path    class="uuid-ea20e949-7618-49bc-891a-60b5507517f3"    d="M15.78,19.77l-1.37,1.09c-.09,.09,.93,.92,.94,.98,.08-.03,.52-2.07,.44-2.08Z"   /><path    class="uuid-ea20e949-7618-49bc-891a-60b5507517f3"    d="M17.53,21.71c-2.03,.71-2.13,.05-.95,2.09,.08,.03,.9-2.06,.95-2.09Z"   /><path    class="uuid-ea20e949-7618-49bc-891a-60b5507517f3"    d="M16.42,24.08c.05-.07-.92-1.69-.94-1.56-.04,.11-1.2,2.73-1.14,2.62,.12-.05,2.06-1.07,2.08-1.06Z"   /><path    class="uuid-ea20e949-7618-49bc-891a-60b5507517f3"    d="M17.59,27.68s-.91-3.04-.91-3.01c-.02,0-.95,3.64-.96,3.66l1.87-.64Z"   /><path    class="uuid-ea20e949-7618-49bc-891a-60b5507517f3"    d="M15.57,28.72s-.07,1.21,.05,1.14c0,0,1.73-1.73,1.73-1.73-.02,0-1.77,.59-1.78,.58Z"   /><path    class="uuid-ea20e949-7618-49bc-891a-60b5507517f3"    d="M18.81,29.84s-.84-1.5-.87-1.47c.01-.01-.02,3.04,.01,2.93,.03-.02,.84-1.44,.86-1.46Z"   /><path    class="uuid-ea20e949-7618-49bc-891a-60b5507517f3"    d="M17.6,28.25c-1.85,2.22-2.95,1.5,.05,3.31-.04-.01,.08-3.41-.05-3.31Z"   /><path    class="uuid-ea20e949-7618-49bc-891a-60b5507517f3"    d="M13.37,31.16s1.88-.94,1.91-.95c0,0,0-1.12,0-1.12-.08-.08-1.86,2.07-1.91,2.07Z"   /><path    class="uuid-ea20e949-7618-49bc-891a-60b5507517f3"    d="M19.65,29.83c.12-.02,4.48,1.32,4.6,1.14-.03-.03-.07-2.14-.15-2.14-.07-.01-4.38,1-4.45,1Z"   /><path    class="uuid-ea20e949-7618-49bc-891a-60b5507517f3"    d="M15.47,28.1s.97-3.66,.98-3.69c0,0-2.03,1.01-2.03,1.01,.02,.02,1.02,2.68,1.05,2.68Z"   /><path    class="uuid-ea20e949-7618-49bc-891a-60b5507517f3"    d="M17.6,12.67s-2.83,.36-2.76,.46c2.17,1.71,1.53,2.33,2.76-.46Z"   /><path    class="uuid-ea20e949-7618-49bc-891a-60b5507517f3"    d="M14.6,13.82s-.13,1.25-.02,1.13c.05-.05,.34-.36,.33-.3-.04-.08-.29-.83-.31-.83Z"   /><path    class="uuid-ea20e949-7618-49bc-891a-60b5507517f3"    d="M14.85,13.54c-.07-.01,.36,1.01,.35,1.04,.02,.03,.96,.17,.99,.18,.09-.08-1.33-1.17-1.34-1.22Z"   /><path    class="uuid-ea20e949-7618-49bc-891a-60b5507517f3"    d="M15.52,16.54s.9-1.39,.92-1.44c-.03,0-1.16-.17-1.18-.17,0,.04,.24,1.61,.26,1.61Z"   /><path    class="uuid-ea20e949-7618-49bc-891a-60b5507517f3"    d="M16.68,15.22c-1.26,2.08-1.44,1.51,.85,2.14,.2-.02-.77-2.09-.85-2.14Z"   /><path    class="uuid-ea20e949-7618-49bc-891a-60b5507517f3"    d="M14.53,15.39s.56,.9,.63,.86c-.18-.35,.1-1.69-.63-.86Z"   /></g></g></svg>