<svg xmlns="http://www.w3.org/2000/svg" width="80" height="80" viewBox="0 0 80 80"><defs><style>.a,.b,.c,.d,.j{fill:none;}.a,.b,.h{stroke:#5048bf;}.a,.b,.c,.e,.h,.i,.j{stroke-miterlimit:10;opacity:0.99;}.a,.c,.i,.j{stroke-width:2.633px;}.b,.e,.h{stroke-width:3px;}.c{stroke:#002c77;}.e,.g,.h,.i{fill:#fff;}.e{stroke:#002c76;}.f{fill:#60dfcf;}.i,.j{stroke:#60dfcf;}</style></defs><g transform="translate(-1052 -1116)"><line class="a" y2="7.455" transform="translate(1104.372 1132.26)"/><line class="b" x1="7.455" transform="translate(1100.644 1135.987)"/><line class="c" y2="7.455" transform="translate(1079.474 1170.481)"/><line class="c" x1="7.455" transform="translate(1075.747 1174.208)"/><rect class="d" width="80" height="80" transform="translate(1052 1116)"/><g transform="translate(-243.475 820.305)"><path class="e" d="M1322.949,310.112a16.192,16.192,0,1,1,0,32.384h0a16.191,16.191,0,0,1-16.192-16.192h0A16.192,16.192,0,0,1,1322.949,310.112Z"/><path class="f" d="M1317.449,324.725l.939-1.963v-.05a.047.047,0,0,1,.05.043v.007h0l.647,1.052v.051l-1.588.96h-.048Z"/><path class="f" d="M1321.016,331.766l-.6-1.912V329.8h.05l.6.092a.047.047,0,0,1,.051.04h0v1.873a.05.05,0,0,1-.047.05h0C1321.016,331.817,1321.016,331.817,1321.016,331.766Z"/><path class="f" d="M1321.065,329.714l-.6-.092c-.05,0-.05,0-.05-.051v-.05l.6-1.346a.048.048,0,0,1,.043-.05h0a.046.046,0,0,1,.05.043v1.447c0,.05,0,.05-.05.1Z"/><path class="f" d="M1317.5,335.654l1.729-.91h.054l1.586,1.1s.049.05,0,.05a.047.047,0,0,1-.046.05h0l-3.32-.192c-.048,0-.048,0-.048-.05a.049.049,0,0,1,.047-.051h0Z"/><path class="f" d="M1317.411,335.166v-2.247h.05l1.586.436a.05.05,0,0,1,.054.047v0h0v.05l-1.54,1.771A.2.2,0,0,1,1317.411,335.166Z"/><path class="f" d="M1317.411,332.678v-.192l.788-1.72.052-.051a.047.047,0,0,1,.048.045v.006h0l.842,2.3v.051h-.05l-1.591-.436C1317.411,332.729,1317.411,332.729,1317.411,332.678Z"/><path class="f" d="M1317.411,331.869v-1.63a.047.047,0,0,1,.043-.051h.055l.54.385s.05.051,0,.051l-.54,1.245c0,.039-.048.039-.1,0Z"/><path class="f" d="M1317.411,329.946v-.283l1.536-1.194h.05c.05,0,.05.05,0,.05l-.838,1.912-.05.051h-.05l-.647-.54Z"/><path class="f" d="M1317.411,329.33v-.151h0l.84-1.964a.047.047,0,0,1,.043-.051h.055l.84.77v.092l-1.681,1.306h-.048c-.05.04-.05.04-.05,0Z"/><path class="f" d="M1317.411,328.508v-2.682c0-.051,0-.051.05-.051s.048,0,.048.051l.648,1.194v.05l-.648,1.488a.047.047,0,0,1-.043.051h0c-.05-.051-.05-.051-.05-.1Z"/><path class="f" d="M1317.5,325.25l1.98.575a.051.051,0,0,1,.053.047v0h0v.05l-1.2.961h-.1l-.79-1.578v-.05Z"/><path class="f" d="M1317.411,324.2v-1.72h.05l.738.05a.05.05,0,0,1,.052.046v0h0v.05l-.742,1.578a.047.047,0,0,1-.043.05h0a.063.063,0,0,1-.05-.061Z"/><path class="f" d="M1317.411,322.287v-.243l.889-1.053s.05-.05.05,0c.05-.05.05,0,.05,0l-.05,1.346a.048.048,0,0,1-.043.051h-.055l-.84-.051Z"/><path class="f" d="M1317.411,321.657V320.5h.05l.79.142a.045.045,0,0,1,.048.041v.009h0v.051l-.788.96s-.048.051-.048,0Z"/><path class="f" d="M1317.4,320.272v-.436l.495-.577h.051l.051.05.343,1.1v.05h-.05Z"/><path class="f" d="M1317.411,319.5v-1.245a.047.047,0,0,1,.043-.051h.007a.047.047,0,0,1,.048.045v.006h0l.447.768v.05l-.447.477h-.048a.048.048,0,0,1-.05-.047Z"/><path class="f" d="M1317.411,317.731v-.575h.05l2.671.05a.047.047,0,0,1,.049.045v.005h0v.051l-2.086,1.577h-.05a.045.045,0,0,1-.048-.041v-.009h0Z"/><path class="f" d="M1320.478,317.348l.346,1.578v.05h-2.381l-.05-.05v-.09l1.979-1.54c.049,0,.049,0,.1.052Z"/><path class="f" d="M1320.667,317.206l1.731-.05a.048.048,0,0,1,.05.047v0h0v.05l-1.387,1.539s-.048.05-.048,0c-.052,0-.052,0-.052-.051l-.344-1.488a.049.049,0,0,1,.047-.05Z"/><path class="f" d="M1320.574,319.219l-1.979,1.245h-.05l-.05-.05-.344-1.245v-.05h2.377c.052,0,.052,0,.052.05v.05Z"/><path class="f" d="M1325.131,317.49l-1.882,1.051h-.05l-.052-.05-.341-1.294v-.052h.05l2.227.243.048.05C1325.179,317.49,1325.179,317.49,1325.131,317.49Z"/><path class="f" d="M1327.169,318.5l-2.225.436h-.052v-.051l.646-1.3a.047.047,0,0,0,.05-.043v-.007h.05l1.592.86-.064.1Z"/><path class="f" d="M1328.454,320.272l-1.383,1.295c-.051.05-.051.05-.051,0l-.051-.05.539-2.731.05-.05c.048,0,.048,0,.048.05l.838,1.387c.052.1.052.1,0,.1Z"/><path class="f" d="M1328.706,322.326l-.491,1.44c0,.05,0,.05-.052.05a.047.047,0,0,1-.048-.045v-.005h0l-1.2-1.771v-.05l1.489-1.439s.052-.051.052,0a.048.048,0,0,1,.049.048v0h0l.2,1.77Z"/><path class="f" d="M1326.813,325.3l-.446-1.3v-.051h.05l1.488.142c.052,0,.052,0,.052.051v.05l-1.094,1.153c.052,0,.052,0-.05-.05.05.05,0,.05,0,0Z"/><path class="f" d="M1326.572,325.252l-1.935-1.487v-.05a.048.048,0,0,1,.047-.05h0l1.54.243a.046.046,0,0,1,.052.039h0l.392,1.245v.051h-.1Z"/><path class="f" d="M1326.42,323.722l.448-1.439a.046.046,0,0,1,.043-.05h0c.052,0,.052,0,.052.05l1.092,1.578v.05a.048.048,0,0,1-.047.05h0l-1.539-.142c-.051-.061-.051-.061-.051-.1Z"/><path class="f" d="M1326.225,323.478l-.79-2.013v-.051h.05l1.2.626.05.051-.4,1.345a.047.047,0,0,1-.043.051h-.007Z"/><path class="f" d="M1326.721,321.851l-1.283-.667a.048.048,0,0,1-.05-.047v0h0v-.051l1.882-2.105s.048-.05.048,0a.05.05,0,0,1,.054.04h0l-.551,2.824a.046.046,0,0,1-.043.05h0C1326.774,321.873,1326.742,321.851,1326.721,321.851Z"/><path class="f" d="M1324.64,321.95l-.153-.667v-.05l.05-.051h.5a.048.048,0,0,1,.049.045v.006h0v.05l-.342.667s0,.04-.1,0Z"/><path class="f" d="M1325.235,321.465l.9,2.207v.05s-.052.051-.052,0l-1.729-.242a.05.05,0,0,1-.05-.047v0h0v-.05l.447-1.052.4-.86c.05-.051.05-.051.1,0Z"/><path class="f" d="M1325.234,320.849l-.447-1.721v-.051h.05l2.377-.435a.049.049,0,0,1,.052.045v0h0v.051l-1.935,2.158a.259.259,0,0,1-.1-.05Z"/><path class="f" d="M1325.033,321.04h-.6v-.05l.205-1.3c0-.05,0-.05.048-.05a.046.046,0,0,1,.052.041h0l.342,1.3a.057.057,0,0,1-.05.061h0Z"/><path class="f" d="M1323.591,320.169l-.34-1.3v-.051l.05-.05,1.142.283.048.05v.05l-.788,1.053a.118.118,0,0,1-.111-.042c.053.051,0,.051,0,0Z"/><path class="f" d="M1324.48,319.5l-.2,1.346c0,.05,0,.05-.05.05h-.05l-.493-.435v-.05l.7-.961a.047.047,0,0,1,.043-.05h.005a.14.14,0,0,1,.049.1Z"/><path class="f" d="M1324.587,318.924l-1.092-.243c-.05,0-.05,0-.05-.05a.048.048,0,0,1,.047-.05h0l1.689-.961h.052v.05l-.6,1.194c0,.042-.022.062-.05.062Z"/><path class="f" d="M1322.708,317.348l.29,1.243v.051h-.048l-1.64.243c-.05,0-.05,0-.05-.051v-.05l1.336-1.49.113.053Z"/><path class="f" d="M1321.068,320.129l-2.036.333c-.05,0-.05,0-.05-.05v-.05l1.831-1.153h.052a.048.048,0,0,1,.05.047v0h0l.2.86Z"/><path class="f" d="M1321.218,319.311l1.04.72a.046.046,0,0,1,.05.039h0a.049.049,0,0,1-.046.051h-.943c-.032,0-.052-.02-.052-.04h0l-.149-.72v-.05Z"/><path class="f" d="M1321.115,320.847v2.823c0,.05,0,.05-.048.05s-.055,0-.055-.05l-.646-1.439v-.051l.646-1.387.055-.05c.048.05.048.05.048.1Z"/><path class="f" d="M1322.806,320.126l.241-.91.048-.051c.052,0,.052,0,.052.051l.243,1.052v.05h-.05l-.495-.142a.06.06,0,0,1-.039-.05Z"/><path class="f" d="M1321.319,319.068l1.639-.243h.05v.051l-.339,1.153a.05.05,0,0,1-.051.05h-.051l-1.286-.912c-.011-.048-.011-.048.039-.1Z"/><path class="f" d="M1324.142,323.622l1.979,1.488s.052.05,0,.05a.047.047,0,0,1-.043.05h-.005l-2.672-.86c-.05,0-.05,0-.05-.05v-.06l.74-.577a.046.046,0,0,1,.043-.05h.007Z"/><path class="f" d="M1323.1,324.442l.392,1.346c0,.05,0,.05-.049.05h-.05l-1.833-1.346a.046.046,0,0,1-.05-.039h0l.05-.051,1.538.04C1323.05,324.392,1323.1,324.392,1323.1,324.442Z"/><path class="f" d="M1323.35,324.482l2.926,1a.05.05,0,0,1,.05.039h0a.051.051,0,0,1-.047.051h0l-2.582.435c-.049,0-.049,0-.049-.05l-.4-1.388v-.05A.22.22,0,0,1,1323.35,324.482Z"/><path class="f" d="M1326.774,325.685l.293,1.387a.049.049,0,0,1-.047.051h-.053l-2.925-.961-.051-.05a.049.049,0,0,1,.044-.051h.007l2.581-.435c.151.011.151.061.151.061Z"/><path class="f" d="M1328.307,326.3l-.991.768s-.052.051-.052,0c-.049,0-.049,0-.049-.05l-.242-1.245v-.039h.052l1.234.475.05.05c.05,0,0,.041,0,.041Z"/><path class="f" d="M1329.492,327.65l-1.979-.385-.05-.05c0-.051,0-.051.05-.051l.993-.77c.048-.05.048,0,.1,0l.987,1.154v.05a.134.134,0,0,1-.1.05Z"/><path class="f" d="M1330.336,329.755l-.943.334h-.05v-.05l.495-1.772a.048.048,0,0,1,.046-.05h0a.047.047,0,0,1,.05.043v.007l.5,1.439a.122.122,0,0,1-.1.051Z"/><path class="f" d="M1330.039,332.293l-1.09-.142a.046.046,0,0,1-.05-.043V332.1h0v-.05l1.333-1.771s.054-.05.054,0a.045.045,0,0,1,.048.041h0l-.241,1.913-.051.061Z"/><path class="f" d="M1328.851,333.875l-.1-1.58a.05.05,0,0,1,.047-.05h.054l1.091.142c.052,0,.052,0,.052.05v.051l-.992,1.387a.1.1,0,0,1-.129.019l-.022-.019Z"/><path class="f" d="M1326.569,335.219l-.1-1.72v-.051h.052l1.979.769.048.05a.046.046,0,0,1-.043.05h-.005l-1.832.961c-.05-.009-.05-.009-.1-.061Z"/><path class="f" d="M1324.691,335.694l-1.74-1.053a.045.045,0,0,1-.05-.039h0a.048.048,0,0,1,.043-.05h.007l3.025.809.05.05a.048.048,0,0,1-.043.051h-.007Z"/><path class="f" d="M1321.418,335.847l.788-1.44h.1l2.033,1.245a.048.048,0,0,1,.052.042h0a.049.049,0,0,1-.047.05h-.005l-2.772.192h-.05c-.1-.05-.1-.05-.1-.09Z"/><path class="f" d="M1323.15,325.97l-3.128-.193c-.049,0-.049,0-.049-.05v-.051l1.193-1.245h.05l1.935,1.44s.05.05,0,.05c.05.05.05.05,0,.05Z"/><path class="f" d="M1319.781,325.545l-.4-1.488v-.05h.052l1.536.333c.05,0,.05,0,.05.05v.05l-1.142,1.154A.152.152,0,0,1,1319.781,325.545Z"/><path class="f" d="M1321.014,327.457l-1.488.436h-.048l-.05-.051.345-1.73a.048.048,0,0,1,.043-.051h.055l1.2,1.3c-.05.05,0,.05-.05.1Z"/><path class="f" d="M1320.074,325.917l3.179.193a.046.046,0,0,1,.048.04h0v.05l-1.979,1.153h-.052l-1.193-1.346v-.05c-.048-.041-.048-.041,0-.041Z"/><path class="f" d="M1323.6,326.263l.392,1.1v.05h-2.276c-.05,0-.05,0-.05-.05a.047.047,0,0,1,.043-.051h.007l1.831-1.1Z"/><path class="f" d="M1323.848,326.216l2.723.912.05.05a.049.049,0,0,1-.047.051h0l-2.328.192c-.049,0-.049,0-.049-.05l-.4-1.052C1323.8,326.263,1323.8,326.263,1323.848,326.216Z"/><path class="f" d="M1326.813,327.457l-1.193.911h-.052l-1.092-.72-.05-.05.05-.051,2.278-.192a.047.047,0,0,1,.049.045v.005h0c.061,0,.061.05.01.05Z"/><path class="f" d="M1325.871,328.7l2.479,1.245a.045.045,0,0,1,.051.041h0l-.051.05-2.033-.282c-.049,0-.049,0-.049-.05l-.5-.961v-.051Z"/><path class="f" d="M1326.369,330.041l1.88,1.822c.051,0,.051.051,0,.051a.048.048,0,0,1-.043.05h-.006l-2.134-.475a.046.046,0,0,1-.05-.04h0l.292-1.346C1326.329,330.041,1326.329,330.041,1326.369,330.041Z"/><path class="f" d="M1325.874,331.716l.344,1.346c0,.05,0,.05-.051.05h-.05l-1.286-.72-.052-.05v-.05l.943-.628c.1.011.1.011.151.05Z"/><path class="f" d="M1324.638,332.486l.991.525.048.05-.048.051-1.933-.333c-.052,0-.052,0-.052-.05s0-.051.052-.051l.941-.192Z"/><path class="f" d="M1322.808,332.871l-.549,1.153-.05.05c-.05,0-.05,0-.05-.05l-.7-1.194v-.051l.051-.05,1.283.092c-.041,0-.041,0,.011.05Z"/><path class="f" d="M1327.223,327.407l1.638,2.438v.05h-.048l-2.974-1.439a.05.05,0,0,1-.052-.046V328.4a.05.05,0,0,1,.05-.05h0l1.335-1c0,.05,0,.05.052.05Z"/><path class="f" d="M1327.461,327.366l2.185.435a.046.046,0,0,1,.05.043v.007h0v.051l-.549,2.065a.046.046,0,0,1-.043.05h-.005a.048.048,0,0,1-.05-.047v0h0l-1.688-2.51V327.4a.18.18,0,0,1,.1-.04Z"/><path class="f" d="M1329.053,330.323l-.4,1.578c0,.05,0,.05-.05.05h-.05l-1.979-1.912v-.05a.047.047,0,0,1,.043-.051h.005l2.381.335a.049.049,0,0,1,.052.045v.005Z"/><path class="f" d="M1330.19,330.088,1329,331.626a.047.047,0,0,1-.043.05h-.005l-.05-.05.295-1.243a.047.047,0,0,1,.043-.051h0l.838-.284h.052a.067.067,0,0,1,.06.04Z"/><path class="f" d="M1326.13,331.628l2.225.525a.046.046,0,0,1,.048.041h0c0,.051,0,.051-.048.051l-1.834.91h-.05l-.048-.05-.345-1.44v-.05Z"/><path class="f" d="M1328.6,332.4l.1,1.68v.051h-.048l-1.934-.769-.051-.05c0-.05,0-.05.051-.05l1.831-.911h.05v.049Z"/><path class="f" d="M1325.73,333.4l-3.271.768h-.05s-.05-.052,0-.052l.6-1.194.051-.051,2.671.436a.043.043,0,0,1,.048.041h0a.047.047,0,0,0-.048.045v.007Z"/><path class="f" d="M1317.5,325.018l1.64-.963h.051c.05,0,.05,0,.05.05l.4,1.578v.05h-.05l-2.035-.577c-.05-.1-.05-.1-.05-.14Z"/><path class="f" d="M1319.185,327.842l-.789-.77v-.092l1.142-.91h.051a.047.047,0,0,1,.051.04h0l-.344,1.63a.049.049,0,0,1-.046.05h0c-.009.05-.009.05-.062.05Z"/><path class="f" d="M1321.014,327.7l-.741,1.681a.047.047,0,0,1-.043.05h-.057l-.7-1.245v-.05a.051.051,0,0,1,.05-.051h0l1.439-.435h.052v.05Z"/><path class="f" d="M1319.387,328.316l.737,1.245v.05a.046.046,0,0,1-.043.05h-.005l-1.68.86h-.052s-.05-.05,0-.05l.942-2.159a.089.089,0,0,1,.1,0c-.05-.04,0-.04,0,0Z"/><path class="f" d="M1319.437,333.114l.788-3.016a.05.05,0,0,1,.047-.05h0a.047.047,0,0,1,.05.043v.007l.739,2.44c0,.05,0,.05-.048.05l-1.54.525c.012.042-.038.042-.038,0Z"/><path class="f" d="M1320.873,332.914l-1.439,1.439h-.05a.046.046,0,0,1-.05-.043V334.3h0v-.91c0-.05,0-.05.05-.05l1.439-.477a.049.049,0,0,1,.052.045v0Z"/><path class="f" d="M1322.056,334.308l-.7,1.195a.047.047,0,0,1-.043.05h-.007a.046.046,0,0,1-.05-.039h0v-2.4a.049.049,0,0,1,.046-.05h0a.048.048,0,0,1,.05.047v0h0Z"/><path class="f" d="M1321.065,335.744l-1.639-1.052V334.6l1.588-1.63h.05a.046.046,0,0,1,.051.039v0h0v2.733a.048.048,0,0,1-.044.05h-.007c.051,0,0,0,0-.05Z"/><path class="f" d="M1319.185,333.641v.961a.046.046,0,0,1-.043.05h-.007l-1.538.768h-.05v-.05l1.536-1.72h.052c.05-.061.05-.011.05-.011Z"/><path class="f" d="M1326.369,335.311l-3.664-.961a.046.046,0,0,1-.051-.04h0c0-.05,0-.05.051-.05l3.573-.81h.05l.05.051.1,1.77a.125.125,0,0,0-.111.04Z"/><path class="f" d="M1318.443,330.665l1.639-.809h.05v.05l-.789,2.976a.048.048,0,0,1-.043.05h-.007c-.051,0-.051,0-.051-.05l-.839-2.159c0-.04.012-.059.041-.059Z"/><path class="f" d="M1321.065,320.363l-.738,1.63-.048.051h-.052l-1.486-1.3s-.05-.05,0-.05c0-.05,0-.05.048-.05l2.227-.335h.048v.05Z"/><path class="f" d="M1318.839,321.992l-.242.243h-.05a.046.046,0,0,1-.052-.04h0l.052-.912a.048.048,0,0,1,.046-.05h0c.052,0,.052,0,.052.05l.239.667a.046.046,0,0,1-.049.042h0Z"/><path class="f" d="M1318.842,321.042l1.092.952s.05.05,0,.05a.048.048,0,0,1-.047.05h-.005l-.788-.142a.048.048,0,0,1-.05-.047v0h0l-.293-.81v-.05c-.011-.05.041-.05.091,0Z"/><path class="f" d="M1320.124,322.326l-.738,1.153a.05.05,0,0,1-.047.051h-.005c-.05,0-.05,0-.05-.051l-.2-1.3v-.05h.051l.94.142c.05.011.05.011.05.05C1320.174,322.287,1320.174,322.326,1320.124,322.326Z"/><path class="f" d="M1320.976,324.2l-1.487-.385a.048.048,0,0,1-.05-.047v0h0v-.05l.788-1.3.05-.05s.1.05.1.092l.7,1.63v.05c-.058.061-.058.061-.1.061Z"/><path class="f" d="M1318.989,323.287l-.495-.72v-.05l.344-.243s.05-.05.05,0a.047.047,0,0,1,.051.045v.005h0l.15.961c0,.05,0,.05-.05.05C1319.041,323.287,1319.041,323.287,1318.989,323.287Z"/></g><circle class="g" cx="21" cy="21" r="21" transform="translate(1083 1143)"/><g transform="translate(-243.475 820.305)"><path class="h" d="M1347.5,327.051a16.192,16.192,0,1,1,0,32.384h0a16.192,16.192,0,0,1-16.192-16.192h0A16.193,16.193,0,0,1,1347.5,327.051Z"/><path class="f" d="M1342,341.664l.939-1.963v-.05a.046.046,0,0,1,.05.043v.007h0l.648,1.052v.051l-1.588.96H1342Z"/><path class="f" d="M1345.568,348.7l-.6-1.912v-.051h.05l.6.092a.046.046,0,0,1,.05.04h0v1.873a.049.049,0,0,1-.046.05h0C1345.568,348.756,1345.568,348.756,1345.568,348.7Z"/><path class="f" d="M1345.617,346.653l-.6-.092c-.05,0-.05,0-.05-.05v-.051l.6-1.346a.047.047,0,0,1,.043-.05h0a.047.047,0,0,1,.05.043v1.447c0,.05,0,.05-.05.1Z"/><path class="f" d="M1342.053,352.593l1.729-.91h.053l1.587,1.1s.048.05,0,.05a.048.048,0,0,1-.047.05h0l-3.32-.192c-.048,0-.048,0-.048-.05a.049.049,0,0,1,.046-.051h0Z"/><path class="f" d="M1341.963,352.105v-2.247h.05l1.586.436a.05.05,0,0,1,.054.047v0h0v.05l-1.54,1.771A.2.2,0,0,1,1341.963,352.105Z"/><path class="f" d="M1341.963,349.617v-.192l.787-1.72.052-.051a.048.048,0,0,1,.049.045v.006h0l.841,2.3v.051h-.05l-1.59-.436C1341.963,349.668,1341.963,349.668,1341.963,349.617Z"/><path class="f" d="M1341.963,348.808v-1.63a.047.047,0,0,1,.043-.051h.055l.539.385s.05.051,0,.051l-.539,1.245c0,.039-.048.039-.1,0Z"/><path class="f" d="M1341.963,346.885V346.6l1.536-1.194h.05c.05,0,.05.05,0,.05l-.838,1.912-.05.051h-.05l-.648-.54Z"/><path class="f" d="M1341.963,346.269v-.151h0l.839-1.964a.049.049,0,0,1,.043-.051h.056l.84.77v.092l-1.681,1.306h-.048c-.05.04-.05.04-.05,0Z"/><path class="f" d="M1341.963,345.447v-2.682c0-.051,0-.051.05-.051s.048,0,.048.051l.647,1.194v.05l-.647,1.488a.048.048,0,0,1-.043.051h-.005c-.05-.051-.05-.051-.05-.1Z"/><path class="f" d="M1342.053,342.189l1.979.575a.052.052,0,0,1,.054.047v0h0v.05l-1.2.961h-.1l-.789-1.578v-.05Z"/><path class="f" d="M1341.963,341.138v-1.72h.05l.737.05a.049.049,0,0,1,.052.046v.005h0v.05l-.741,1.578a.048.048,0,0,1-.043.05h-.005a.063.063,0,0,1-.05-.061Z"/><path class="f" d="M1341.963,339.226v-.243l.889-1.053s.05-.05.05,0c.05-.05.05,0,.05,0l-.05,1.346a.049.049,0,0,1-.043.051h-.056l-.84-.051Z"/><path class="f" d="M1341.963,338.6v-1.153h.05l.789.142a.045.045,0,0,1,.049.041v.009h0v.051l-.788.96s-.049.051-.049,0Z"/><path class="f" d="M1341.954,337.211v-.436l.494-.577h.052l.05.05.344,1.1v.05h-.05Z"/><path class="f" d="M1341.963,336.443V335.2a.047.047,0,0,1,.043-.051h.007a.047.047,0,0,1,.048.045v.006h0l.446.768v.05l-.446.477h-.048a.047.047,0,0,1-.05-.047Z"/><path class="f" d="M1341.963,334.67V334.1h.05l2.671.05a.047.047,0,0,1,.048.045v.005h0v.051l-2.085,1.577h-.05a.045.045,0,0,1-.049-.041v-.009h0Z"/><path class="f" d="M1345.03,334.287l.345,1.578v.05h-2.38l-.05-.05v-.09l1.979-1.54c.048,0,.048,0,.1.052Z"/><path class="f" d="M1345.219,334.145l1.731-.05a.048.048,0,0,1,.05.047v0h0v.05l-1.387,1.539s-.049.05-.049,0c-.052,0-.052,0-.052-.051l-.343-1.488a.049.049,0,0,1,.046-.05Z"/><path class="f" d="M1345.126,336.158l-1.979,1.245h-.05l-.05-.05-.344-1.245v-.05h2.376c.052,0,.052,0,.052.05v.05Z"/><path class="f" d="M1349.683,334.429l-1.882,1.051h-.05l-.052-.05-.342-1.294v-.052h.05l2.227.243.049.05C1349.731,334.429,1349.731,334.429,1349.683,334.429Z"/><path class="f" d="M1351.721,335.438l-2.226.436h-.051v-.051l.645-1.295a.046.046,0,0,0,.05-.043v-.007h.05l1.592.86-.063.1Z"/><path class="f" d="M1353.006,337.211l-1.384,1.3c-.05.05-.05.05-.05,0l-.052-.05.54-2.731.05-.05c.048,0,.048,0,.048.05l.838,1.387c.052.1.052.1,0,.1Z"/><path class="f" d="M1353.258,339.265l-.491,1.44c0,.05,0,.05-.052.05a.047.047,0,0,1-.048-.045V340.7h0l-1.2-1.771v-.05l1.49-1.439s.052-.051.052,0a.048.048,0,0,1,.048.048v0h0l.2,1.77Z"/><path class="f" d="M1351.365,342.241l-.446-1.295v-.051h.05l1.488.142c.052,0,.052,0,.052.051v.05l-1.094,1.153c.052,0,.052,0-.05-.05.05.05,0,.05,0,0Z"/><path class="f" d="M1351.123,342.191l-1.934-1.487v-.05a.048.048,0,0,1,.046-.05h0l1.54.243a.047.047,0,0,1,.052.039h0l.391,1.245v.051h-.1Z"/><path class="f" d="M1350.971,340.661l.448-1.439a.047.047,0,0,1,.043-.05h0c.052,0,.052,0,.052.05l1.092,1.578v.05a.05.05,0,0,1-.047.05h0l-1.538-.142c-.052-.061-.052-.061-.052-.1Z"/><path class="f" d="M1350.776,340.417l-.79-2.013v-.051h.051l1.194.626.05.051-.394,1.345a.048.048,0,0,1-.043.051h-.007Z"/><path class="f" d="M1351.273,338.79l-1.283-.667a.048.048,0,0,1-.05-.047v0h0v-.051l1.882-2.105s.048-.05.048,0a.049.049,0,0,1,.053.04h0l-.55,2.824a.047.047,0,0,1-.043.05h0C1351.326,338.812,1351.294,338.79,1351.273,338.79Z"/><path class="f" d="M1349.191,338.889l-.152-.667v-.05l.05-.051h.5a.048.048,0,0,1,.048.045v.006h0v.05l-.341.667s0,.04-.1,0Z"/><path class="f" d="M1349.786,338.4l.9,2.207v.05s-.052.051-.052,0l-1.729-.242a.05.05,0,0,1-.05-.047v0h0v-.05l.446-1.052.4-.86c.051-.051.051-.051.1,0Z"/><path class="f" d="M1349.785,337.788l-.446-1.721v-.051h.05l2.376-.435a.048.048,0,0,1,.052.045v.005h0v.051l-1.934,2.158a.259.259,0,0,1-.1-.05Z"/><path class="f" d="M1349.585,337.979h-.6v-.05l.205-1.3c0-.05,0-.05.048-.05a.047.047,0,0,1,.052.041h0l.341,1.3a.055.055,0,0,1-.05.061h0Z"/><path class="f" d="M1348.143,337.108l-.34-1.3v-.051l.05-.05,1.142.283.048.05v.05l-.788,1.053a.121.121,0,0,1-.112-.042c.054.051,0,.051,0,0Z"/><path class="f" d="M1349.032,336.442l-.2,1.346c0,.05,0,.05-.05.05h-.05l-.493-.435v-.05l.7-.961a.046.046,0,0,1,.043-.05h.005a.136.136,0,0,1,.048.1Z"/><path class="f" d="M1349.139,335.863l-1.092-.243c-.05,0-.05,0-.05-.05a.048.048,0,0,1,.046-.05h0l1.689-.961h.052v.05l-.6,1.194c0,.042-.022.062-.05.062Z"/><path class="f" d="M1347.26,334.287l.29,1.243v.051h-.049l-1.639.243c-.05,0-.05,0-.05-.051v-.05l1.335-1.49.114.053Z"/><path class="f" d="M1345.62,337.068l-2.037.333c-.05,0-.05,0-.05-.05v-.05l1.832-1.153h.052a.048.048,0,0,1,.05.047v0h0l.2.86Z"/><path class="f" d="M1345.77,336.25l1.04.72a.046.046,0,0,1,.05.039h0a.049.049,0,0,1-.047.051h-.942c-.033,0-.052-.02-.052-.04h0l-.149-.72v-.05Z"/><path class="f" d="M1345.667,337.786v2.823c0,.05,0,.05-.048.05s-.056,0-.056-.05l-.645-1.439v-.051l.645-1.387.056-.05c.048.05.048.05.048.1Z"/><path class="f" d="M1347.358,337.065l.241-.91.048-.051c.052,0,.052,0,.052.051l.242,1.052v.05h-.05l-.494-.142a.062.062,0,0,1-.04-.05Z"/><path class="f" d="M1345.871,336.007l1.639-.243h.05v.051l-.34,1.153a.05.05,0,0,1-.05.05h-.052l-1.286-.912c-.01-.048-.01-.048.04-.1Z"/><path class="f" d="M1348.693,340.561l1.98,1.488s.051.05,0,.05a.048.048,0,0,1-.043.05h-.006l-2.671-.86c-.05,0-.05,0-.05-.05v-.059l.739-.578a.048.048,0,0,1,.043-.05h.007Z"/><path class="f" d="M1347.651,341.381l.392,1.346c0,.05,0,.05-.048.05h-.05l-1.833-1.346a.047.047,0,0,1-.051-.039h0l.051-.051,1.538.04C1347.6,341.331,1347.651,341.331,1347.651,341.381Z"/><path class="f" d="M1347.9,341.421l2.925,1a.048.048,0,0,1,.05.039h0a.049.049,0,0,1-.046.051h0l-2.582.435c-.048,0-.048,0-.048-.05l-.4-1.388v-.05A.22.22,0,0,1,1347.9,341.421Z"/><path class="f" d="M1351.325,342.624l.294,1.387a.05.05,0,0,1-.047.051h-.053l-2.926-.961-.05-.05a.048.048,0,0,1,.043-.051h.007l2.582-.435c.151.011.151.061.151.061Z"/><path class="f" d="M1352.858,343.241l-.991.768s-.052.051-.052,0c-.048,0-.048,0-.048-.05l-.242-1.245v-.039h.051l1.235.475.05.05c.05,0,0,.041,0,.041Z"/><path class="f" d="M1354.044,344.589l-1.979-.385-.05-.05c0-.051,0-.051.05-.051l.993-.77c.048-.05.048,0,.1,0l.987,1.154v.05a.136.136,0,0,1-.1.05Z"/><path class="f" d="M1354.887,346.694l-.942.334h-.05v-.05l.494-1.772a.049.049,0,0,1,.047-.05h0a.047.047,0,0,1,.051.043v.007l.5,1.439a.122.122,0,0,1-.1.051Z"/><path class="f" d="M1354.591,349.232l-1.091-.142a.047.047,0,0,1-.05-.043v-.007h0v-.05l1.334-1.771s.053-.05.053,0a.046.046,0,0,1,.049.041h0l-.241,1.913-.052.061Z"/><path class="f" d="M1353.4,350.814l-.1-1.58a.048.048,0,0,1,.047-.05h.053l1.092.142c.052,0,.052,0,.052.05v.051l-.993,1.387a.1.1,0,0,1-.129.019l-.022-.019Z"/><path class="f" d="M1351.121,352.158l-.1-1.72v-.051h.051l1.98.769.048.05a.047.047,0,0,1-.043.05h-.005l-1.832.961c-.05-.009-.05-.009-.1-.061Z"/><path class="f" d="M1349.242,352.633l-1.739-1.053a.044.044,0,0,1-.05-.039h0a.047.047,0,0,1,.043-.05h.007l3.025.809.05.05a.049.049,0,0,1-.043.051h-.007Z"/><path class="f" d="M1345.969,352.786l.788-1.44h.1l2.033,1.245a.049.049,0,0,1,.052.042h0a.05.05,0,0,1-.047.05h-.005l-2.773.192h-.05c-.1-.05-.1-.05-.1-.09Z"/><path class="f" d="M1347.7,342.909l-3.129-.193c-.048,0-.048,0-.048-.05v-.051l1.193-1.245h.05l1.934,1.44s.051.05,0,.05c.051.05.051.05,0,.05Z"/><path class="f" d="M1344.333,342.484l-.4-1.488v-.05h.052l1.537.333c.05,0,.05,0,.05.05v.05l-1.142,1.154A.152.152,0,0,1,1344.333,342.484Z"/><path class="f" d="M1345.566,344.4l-1.488.436h-.048l-.051-.051.346-1.73a.047.047,0,0,1,.043-.051h.055l1.2,1.3c-.05.05,0,.05-.05.1Z"/><path class="f" d="M1344.625,342.857l3.179.192a.046.046,0,0,1,.049.04h0v.05l-1.98,1.153h-.051l-1.193-1.346v-.05c-.049-.041-.049-.041,0-.041Z"/><path class="f" d="M1348.148,343.2l.392,1.1v.05h-2.276c-.051,0-.051,0-.051-.05a.049.049,0,0,1,.043-.051h.008l1.831-1.1Z"/><path class="f" d="M1348.4,343.155l2.722.912.05.05a.049.049,0,0,1-.046.051h0l-2.328.192c-.048,0-.048,0-.048-.05l-.4-1.052C1348.348,343.2,1348.348,343.2,1348.4,343.155Z"/><path class="f" d="M1351.365,344.4l-1.193.911h-.052l-1.092-.72-.05-.05.05-.051,2.278-.192a.047.047,0,0,1,.048.045v.005h0c.062,0,.062.05.011.05Z"/><path class="f" d="M1350.422,345.64l2.479,1.245a.046.046,0,0,1,.052.041h0l-.052.05-2.033-.282c-.048,0-.048,0-.048-.05l-.5-.961v-.051Z"/><path class="f" d="M1350.92,346.98l1.88,1.822c.052,0,.052.051,0,.051a.047.047,0,0,1-.043.05h-.005l-2.134-.475a.045.045,0,0,1-.05-.04h0l.292-1.346C1350.881,346.98,1350.881,346.98,1350.92,346.98Z"/><path class="f" d="M1350.426,348.655l.343,1.346c0,.05,0,.05-.05.05h-.05l-1.286-.72-.052-.05v-.05l.943-.628c.1.011.1.011.151.05Z"/><path class="f" d="M1349.19,349.425l.991.525.048.05-.048.051-1.933-.333c-.052,0-.052,0-.052-.05s0-.051.052-.051l.941-.192Z"/><path class="f" d="M1347.36,349.81l-.549,1.153-.05.05c-.05,0-.05,0-.05-.05l-.7-1.194v-.051l.052-.05,1.283.092c-.042,0-.042,0,.01.05Z"/><path class="f" d="M1351.775,344.346l1.638,2.438v.05h-.049l-2.973-1.439a.049.049,0,0,1-.052-.046v-.005a.05.05,0,0,1,.05-.05h0l1.335-1c0,.05,0,.05.052.05Z"/><path class="f" d="M1352.012,344.3l2.186.435a.047.047,0,0,1,.05.043v.007h0v.051l-.549,2.065a.047.047,0,0,1-.043.05h-.005a.049.049,0,0,1-.051-.047v0h0l-1.687-2.51v-.052a.18.18,0,0,1,.1-.04Z"/><path class="f" d="M1353.6,347.262l-.4,1.578c0,.05,0,.05-.05.05h-.05l-1.98-1.912v-.05a.049.049,0,0,1,.043-.051h.006l2.38.335a.048.048,0,0,1,.052.045v.005Z"/><path class="f" d="M1354.742,347.027l-1.193,1.538a.047.047,0,0,1-.043.05h-.006l-.05-.05.3-1.243a.049.049,0,0,1,.043-.051h.006l.838-.284h.052a.064.064,0,0,1,.059.04Z"/><path class="f" d="M1350.681,348.567l2.226.525a.047.047,0,0,1,.048.041h0c0,.051,0,.051-.048.051l-1.834.91h-.05l-.048-.05-.345-1.44v-.05Z"/><path class="f" d="M1353.157,349.335l.1,1.68v.051h-.048l-1.935-.769-.05-.05c0-.05,0-.05.05-.05l1.832-.911h.05v.049Z"/><path class="f" d="M1350.282,350.335l-3.271.768h-.05s-.05-.052,0-.052l.6-1.194.05-.051,2.672.436a.045.045,0,0,1,.048.041h0a.046.046,0,0,0-.048.045v.007Z"/><path class="f" d="M1342.053,341.957l1.639-.963h.052c.05,0,.05,0,.05.05l.4,1.578v.05h-.051l-2.034-.577c-.05-.1-.05-.1-.05-.14Z"/><path class="f" d="M1343.737,344.781l-.79-.77v-.092l1.142-.91h.052a.046.046,0,0,1,.05.04h0l-.343,1.63a.049.049,0,0,1-.047.05h0c-.009.05-.009.05-.062.05Z"/><path class="f" d="M1345.566,344.637l-.741,1.681a.048.048,0,0,1-.043.05h-.058l-.7-1.245v-.05a.051.051,0,0,1,.05-.051h0l1.439-.435h.052v.05Z"/><path class="f" d="M1343.938,345.255l.738,1.245v.05a.046.046,0,0,1-.043.05h-.005l-1.681.86h-.052s-.05-.05,0-.05l.943-2.159a.089.089,0,0,1,.1,0c-.05-.04,0-.04,0,0Z"/><path class="f" d="M1343.989,350.053l.788-3.016a.049.049,0,0,1,.047-.05h0a.046.046,0,0,1,.05.043v.007l.74,2.44c0,.05,0,.05-.048.05l-1.54.526c.012.041-.038.041-.038,0Z"/><path class="f" d="M1345.425,349.853l-1.439,1.439h-.05a.047.047,0,0,1-.051-.043v-.007h0v-.91c0-.05,0-.05.051-.05l1.438-.477a.048.048,0,0,1,.052.045v0Z"/><path class="f" d="M1346.608,351.247l-.7,1.195a.046.046,0,0,1-.043.05h-.007a.047.047,0,0,1-.05-.039h0v-2.4a.05.05,0,0,1,.047-.05h0a.047.047,0,0,1,.05.047v0h0Z"/><path class="f" d="M1345.617,352.683l-1.639-1.052v-.092l1.588-1.63h.05a.045.045,0,0,1,.05.039v0h0v2.733a.046.046,0,0,1-.043.05h-.007c.05,0,0,0,0-.05Z"/><path class="f" d="M1343.737,350.58v.961a.047.047,0,0,1-.043.05h-.007l-1.538.768h-.05v-.05l1.536-1.72h.052c.05-.061.05-.011.05-.011Z"/><path class="f" d="M1350.92,352.25l-3.663-.961a.048.048,0,0,1-.052-.04h0c0-.05,0-.05.052-.05l3.573-.81h.05l.05.051.1,1.77a.128.128,0,0,0-.112.04Z"/><path class="f" d="M1342.995,347.6l1.639-.809h.05v.05l-.79,2.976a.047.047,0,0,1-.043.05h-.007c-.05,0-.05,0-.05-.05l-.84-2.159c0-.04.013-.059.042-.059Z"/><path class="f" d="M1345.617,337.3l-.738,1.63-.048.051h-.052l-1.486-1.3s-.051-.05,0-.05c0-.05,0-.05.048-.05l2.227-.335h.048v.05Z"/><path class="f" d="M1343.391,338.931l-.243.243h-.05a.046.046,0,0,1-.051-.04h0l.051-.912a.048.048,0,0,1,.047-.05h0c.052,0,.052,0,.052.05l.239.667a.045.045,0,0,1-.048.042h0Z"/><path class="f" d="M1343.394,337.981l1.091.952s.051.05,0,.05a.048.048,0,0,1-.046.05h-.005l-.788-.142a.047.047,0,0,1-.05-.047v0h0l-.294-.81v-.05c-.01-.05.041-.05.092,0Z"/><path class="f" d="M1344.675,339.265l-.738,1.153a.049.049,0,0,1-.046.051h-.006c-.05,0-.05,0-.05-.051l-.2-1.3v-.05h.052l.939.142c.05.011.05.011.05.05C1344.725,339.226,1344.725,339.265,1344.675,339.265Z"/><path class="f" d="M1345.527,341.138l-1.486-.385a.048.048,0,0,1-.05-.047v0h0v-.05l.788-1.3.05-.05s.1.05.1.092l.7,1.63v.05c-.058.061-.058.061-.1.061Z"/><path class="f" d="M1343.54,340.226l-.494-.72v-.05l.343-.243s.05-.05.05,0a.048.048,0,0,1,.052.045v.005h0l.149.961c0,.05,0,.05-.05.05C1343.593,340.226,1343.593,340.226,1343.54,340.226Z"/></g><line class="i" y2="7.455" transform="translate(1114.797 1139.205)"/><line class="j" x1="7.455" transform="translate(1111.069 1142.932)"/></g></svg>