<svg xmlns="http://www.w3.org/2000/svg" xmlns:xlink="http://www.w3.org/1999/xlink" width="80" height="80" viewBox="0 0 80 80"><defs><style>.a{fill:none;}.b{clip-path:url(#a);}.c{opacity:0.99;}.d{fill:#5245c5;}.e{fill:#002c77;}.f{fill:#65ddcd;font-size:28.458px;font-family:RedHatText-Bold, Red Hat Text;font-weight:700;isolation:isolate;}</style><clipPath id="a"><rect class="a" width="80" height="80" transform="translate(1482.915 223.66)"/></clipPath></defs><g transform="translate(-1482.915 -223.66)"><g class="b"><g class="c"><path class="d" d="M1504.007,254.281l-4.476-2.226a25.967,25.967,0,0,1,23.384-14.5v5A21,21,0,0,0,1504.007,254.281Z"/><path class="d" d="M1509.95,253.143l-10.636,10.517-3.792-14.469Z"/></g><path class="e" d="M1522.915,289.76v-5a21,21,0,0,0,18.907-11.721l4.476,2.226A25.962,25.962,0,0,1,1522.915,289.76Z"/><path class="e" d="M1535.88,274.177l10.636-10.517,3.792,14.469Z"/><text class="f" transform="translate(1511.222 274.256)"><tspan x="0" y="0">€</tspan></text></g></g></svg>